<?xml version="1.0" encoding="utf-8"?>
<!-- Generator: Adobe Illustrator 22.1.0, SVG Export Plug-In . SVG Version: 6.00 Build 0)  -->
<svg version="1.1" id="Layer_1" xmlns="http://www.w3.org/2000/svg" xmlns:xlink="http://www.w3.org/1999/xlink" x="0px" y="0px"
	 viewBox="0 0 708.7 708.7" style="enable-background:new 0 0 708.7 708.7;" xml:space="preserve">
<style type="text/css">
	.st0{fill:url(#SVGID_1_);}
	.st1{fill:#212121;}
</style>
<g>
	
		<linearGradient id="SVGID_1_" gradientUnits="userSpaceOnUse" x1="514.8242" y1="293.9841" x2="634.2559" y2="413.4159" gradientTransform="matrix(1 0 0 -1 0 708)">
		<stop  offset="0" style="stop-color:#5F5CFF"/>
		<stop  offset="0.6271" style="stop-color:#8F2DE2"/>
	</linearGradient>
	<path class="st0" d="M572.8,267.4l-72.6,41.9c-1.1,0.6-1.7,1.8-1.7,3v83.9c0,1.2,0.7,2.4,1.7,3l72.6,41.9c1.1,0.6,2.4,0.6,3.4,0
		l72.6-41.9c1.1-0.6,1.7-1.8,1.7-3v-83.9c0-1.2-0.7-2.4-1.7-3l-72.6-41.9C575.2,266.8,573.9,266.8,572.8,267.4z M565.3,338.1h-10.7
		c-1.9,0-3.4-1.5-3.4-3.4v-3.6c0-2.6-2.9-4.3-5.2-3l-9.7,5.6c-1.1,0.6-1.7,1.8-1.7,3v33.6c0,1.2,0.7,2.4,1.7,3l9.7,5.6
		c2.3,1.3,5.2-0.3,5.2-3v-3.6c0-1.9,1.5-3.4,3.4-3.4h10.7c1.9,0,3.4,1.5,3.4,3.4V408c0,2.6-2.9,4.3-5.2,3l-46.3-26.7
		c-1.1-0.6-1.7-1.8-1.7-3v-55.5c0-1.2,0.7-2.4,1.7-3l46.3-26.7c2.3-1.3,5.2,0.3,5.2,3v35.6C568.7,336.6,567.2,338.1,565.3,338.1z
		 M631,341.2l-28.4-13c-2.3-1-4.9,0.6-4.9,3.1v2.3c0,1.3,0.8,2.5,2,3.1l34.2,16.2c1.2,0.6,2,1.8,2,3.1v23c0,1.2-0.7,2.4-1.7,3
		L584,411c-2.3,1.3-5.2-0.3-5.2-3v-43c0-2.5,2.7-4.2,5-3.1l12.1,6c1.2,0.6,1.9,1.8,1.9,3.1v4.1c0,2.6,2.9,4.3,5.2,3l12.2-7.1
		c1.1-0.6,1.7-1.8,1.7-3l0,0c0-1.3-0.8-2.5-2-3.1l-34.1-16.2c-1.2-0.6-2-1.8-2-3.1v-46.7c0-2.6,2.8-4.3,5.1-3l50.2,27.6
		c1.1,0.6,1.8,1.8,1.8,3v11.5C635.9,340.6,633.3,342.3,631,341.2z"/>
	<g>
		<path class="st1" d="M111.3,343.4H92.5c-1.2,0-1.8,0.7-1.8,1.6c0,0.4,0.2,0.8,0.5,1.2l11.4,14c2.6,3.3,3.9,6.7,3.9,10.3
			c0,7.4-5.8,13.9-14.8,13.9H58.6v-19.2h18.9c1.2,0,1.8-0.8,1.8-1.6c0-0.4-0.2-0.8-0.5-1.3l-11.5-14c-2.7-3.4-3.9-6.5-3.9-10.2
			c0-7.4,5.8-14,14.8-14h33L111.3,343.4L111.3,343.4z"/>
		<path class="st1" d="M152.8,364.2v20.3h-20.6v-20.3l-19.8-40h23.7l7.1,16.5l7.1-16.5h22.4L152.8,364.2z"/>
		<path class="st1" d="M231.8,384.4h-18.8l-17.3-27.1v27.1H176v-60.3h18.8l17.4,26.3v-26.3h19.7L231.8,384.4L231.8,384.4z"/>
		<path class="st1" d="M294.2,343.4h-20v41h-20.5v-41h-19.9v-19.3h60.4V343.4z"/>
		<path class="st1" d="M350.2,384.4h-23.7l-2.3-9.6h-14.7l-2.3,9.6h-22.4l19.3-60.3h26.9L350.2,384.4z M312.8,359h7.8l-3.8-14.9
			L312.8,359z"/>
		<path class="st1" d="M394.7,353.4l17.8,31h-24.9l-7-13.6l-6.8,13.6h-22.1l17.8-31.6l-16.4-28.6H378l5.3,11l5.6-11h22L394.7,353.4z
			"/>
		<path class="st1" d="M435.4,384.4h-20.5v-60.3h20.5V384.4z"/>
		<path class="st1" d="M490.1,343.4h-18.8c-1.2,0-1.8,0.7-1.8,1.6c0,0.4,0.2,0.8,0.5,1.2l11.5,14c2.6,3.3,3.9,6.7,3.9,10.3
			c0,7.4-5.8,13.9-14.8,13.9h-33.1v-19.2h18.9c1.2,0,1.8-0.8,1.8-1.6c0-0.4-0.2-0.8-0.5-1.3l-11.5-14c-2.7-3.4-3.9-6.5-3.9-10.2
			c0-7.4,5.8-14,14.8-14h33L490.1,343.4L490.1,343.4z"/>
	</g>
</g>
</svg>
