<?xml version="1.0" standalone="no"?>
<!DOCTYPE svg PUBLIC "-//W3C//DTD SVG 20010904//EN"
 "http://www.w3.org/TR/2001/REC-SVG-20010904/DTD/svg10.dtd">
<svg version="1.0" xmlns="http://www.w3.org/2000/svg"
 width="700.000000pt" height="700.000000pt" viewBox="0 0 700.000000 700.000000"
 preserveAspectRatio="xMidYMid meet">
<metadata>
Created by potrace 1.14, written by Peter Selinger 2001-2017
</metadata>
<g transform="translate(0.000000,700.000000) scale(0.100000,-0.100000)"
fill="#000000" stroke="none">
<path d="M3267 6014 c-116 -67 -234 -135 -262 -149 -27 -15 -62 -36 -77 -46
-14 -11 -28 -19 -31 -19 -3 0 -50 -26 -104 -58 -54 -32 -105 -61 -113 -65 -8
-4 -28 -16 -45 -27 -16 -11 -37 -23 -45 -27 -8 -4 -80 -45 -160 -91 -80 -47
-158 -92 -175 -102 -84 -48 -525 -302 -709 -409 -115 -66 -211 -121 -213 -121
-2 0 -22 -12 -46 -27 -46 -30 -76 -60 -78 -77 -7 -58 -3 -2578 4 -2598 8 -25
48 -56 137 -106 19 -11 107 -61 195 -112 88 -51 174 -101 190 -110 17 -10 70
-41 118 -69 49 -28 93 -51 98 -51 5 0 9 -4 9 -10 0 -5 4 -10 9 -10 5 0 135
-73 288 -161 153 -89 368 -213 478 -277 110 -63 205 -118 210 -122 6 -4 30
-18 55 -32 25 -14 137 -78 249 -143 112 -64 216 -121 231 -125 36 -10 50 -4
294 138 114 67 210 122 211 122 3 0 187 106 225 130 8 5 42 24 75 43 78 44 28
16 804 465 530 306 678 396 691 418 13 26 15 171 15 1320 0 1434 5 1321 -67
1358 -18 9 -46 25 -63 35 -38 23 -645 374 -785 454 -58 33 -199 115 -315 182
-115 67 -230 133 -255 147 -45 25 -636 367 -720 416 -88 52 -86 53 -323 -84z
m5 -759 c9 -4 25 -19 34 -33 16 -25 18 -71 18 -581 1 -344 -3 -565 -9 -584
-21 -62 -40 -68 -252 -69 -254 -2 -264 4 -268 166 -3 87 -4 91 -34 118 -51 45
-81 39 -233 -49 -190 -109 -206 -120 -221 -150 -19 -38 -18 -1076 1 -1110 16
-28 338 -215 377 -218 73 -6 109 42 111 149 1 39 2 79 3 89 0 11 15 32 32 48
l31 29 190 0 c124 0 197 -4 211 -12 29 -15 57 -47 58 -67 5 -80 3 -1094 -3
-1120 -8 -42 -33 -68 -76 -81 -39 -11 -43 -9 -412 205 -140 81 -298 172 -350
202 -52 30 -102 59 -110 64 -8 5 -132 76 -275 158 -328 189 -347 201 -362 231
-10 20 -12 208 -10 896 2 787 4 872 18 887 9 9 54 38 100 65 77 45 496 287
579 334 19 11 194 112 389 225 194 112 363 208 375 213 22 9 60 7 88 -5z m607
-49 c64 -34 274 -150 466 -256 193 -106 368 -203 390 -214 22 -12 132 -73 245
-135 113 -62 233 -129 267 -147 104 -58 103 -55 103 -285 0 -109 -4 -208 -9
-222 -5 -13 -22 -32 -37 -42 -50 -32 -64 -29 -319 90 -27 12 -102 46 -165 75
-63 29 -147 67 -186 85 -129 61 -279 127 -308 136 -39 12 -91 -11 -110 -50
-21 -40 -21 -135 1 -171 12 -20 49 -44 132 -83 130 -62 486 -230 601 -284 320
-151 377 -182 389 -210 8 -21 11 -132 9 -405 -3 -352 -4 -377 -22 -397 -16
-18 -50 -40 -151 -97 -11 -6 -45 -26 -75 -44 -30 -18 -77 -45 -105 -60 -27
-15 -100 -57 -162 -93 -62 -36 -132 -77 -155 -90 -24 -13 -83 -48 -133 -77
-49 -29 -103 -60 -120 -69 -131 -75 -171 -98 -198 -114 -17 -10 -94 -55 -171
-99 -78 -45 -153 -89 -168 -100 -16 -11 -28 -16 -28 -12 0 4 -8 0 -18 -9 -9
-9 -37 -25 -61 -35 -35 -16 -49 -18 -77 -9 -74 23 -69 -29 -72 730 -2 501 1
689 9 710 13 31 55 57 93 57 35 0 430 -198 447 -224 8 -13 16 -62 19 -125 5
-101 6 -104 38 -132 49 -44 77 -39 211 38 64 36 156 89 205 116 96 54 129 92
122 140 -7 43 -30 72 -78 95 -43 20 -164 78 -416 198 -74 35 -135 64 -137 64
-2 0 -95 44 -207 98 -111 54 -218 104 -236 111 -18 8 -41 26 -52 41 -19 27
-20 47 -20 760 0 519 3 738 11 753 6 12 21 30 33 39 39 32 81 22 205 -46z"/>
</g>
</svg>
